<?xml version="1.0" encoding="UTF-8"?>
<!-- Generated by Pixelmator Pro 3.7 -->
<svg width="847" height="707" viewBox="0 0 847 707" xmlns="http://www.w3.org/2000/svg">
    <path id="Shape" fill="#253e81" fill-rule="evenodd" stroke="none" d="M 592 650 L 637 650 L 637 677.5 L 637 705 L 629 705 C 621 705 621 705 621 699 C 621 695.700012 620.756165 693 620.458191 693 C 620.160217 693 618.922668 693.948425 617.708191 695.107605 C 616.493713 696.266724 613.924988 698.221375 612 699.451233 C 610.075012 700.68103 605.901184 702.655579 602.724915 703.838989 C 599.548645 705.022461 593.923645 706.209351 590.224915 706.476685 C 586.203674 706.767212 580.970642 706.388916 577.208618 705.535645 C 573.748352 704.750854 568.573364 703.027344 565.708618 701.70575 C 562.843872 700.384094 558.103638 697.397339 555.174683 695.068604 C 552.245789 692.739807 548.076599 688.091675 545.909912 684.73938 C 543.743225 681.387024 541.045166 675.686768 539.914246 672.072144 C 538.783325 668.457458 537.602478 661.398071 537.290161 656.384583 C 536.882019 649.834351 537.176392 645.258057 538.33606 640.122742 C 539.223694 636.1922 541.19873 630.421692 542.724976 627.299316 C 544.251221 624.177002 547.75 619.15625 550.5 616.142212 C 553.25 613.128052 557.801025 609.188599 560.613403 607.387634 C 563.425842 605.586731 568.60083 603.13446 572.113403 601.93811 C 575.800476 600.682373 582.205444 599.542725 587.266418 599.241821 C 593.556763 598.86792 597.934692 599.187866 602.766418 600.374512 C 606.46991 601.284119 611.974976 603.233154 615 604.705811 C 618.025024 606.178345 622.816956 609.697144 625.648865 612.525269 C 628.480713 615.353394 631.90387 619.879639 633.255798 622.583618 C 634.607727 625.287598 636.011841 628.737488 636.375977 630.25 C 637.038086 633 637.038086 633 627.539368 633 C 618.040649 633 618.040649 633 615.993164 628.986572 C 614.867065 626.779236 612.160217 623.67981 609.978027 622.09906 C 607.795837 620.518311 603.087769 618.433838 599.515686 617.466858 C 594.845276 616.202637 591.198425 615.879028 586.53241 616.314697 C 582.751465 616.667847 577.768066 617.997314 574.590088 619.500732 C 571.590454 620.919739 567.688599 623.729614 565.91925 625.744751 C 564.149902 627.759949 561.536499 631.904297 560.111755 634.954346 C 557.79895 639.905518 557.520142 641.732788 557.51062 652 C 557.504456 658.675903 558.061096 665.429138 558.837646 668.098816 C 559.573303 670.628174 561.831482 674.888916 563.855713 677.5672 C 565.879944 680.245483 569.693604 683.77063 572.330566 685.40094 C 576.419006 687.92865 578.390259 688.431519 585.718079 688.816101 C 591.960693 689.143799 595.737854 688.817444 599.526733 687.623108 C 602.526245 686.677612 606.723145 684.235352 609.404663 681.875 C 611.968994 679.617798 614.66272 676.585022 615.390686 675.135498 C 616.118713 673.685974 616.992371 671.037476 617.332153 669.25 C 617.950012 666 617.950012 666 604.974976 666 C 592 666 592 666 592 658 Z M 0 705 L 0 601 L 11.578026 601 L 23.156052 601 L 30.827286 617.25 C 35.046463 626.1875 41.717529 640.025024 45.651871 648 L 52.805237 662.5 L 59.880173 647.739258 C 63.771378 639.620789 70.337952 625.895813 74.472519 617.239258 L 81.989944 601.5 L 93.49498 601.218262 L 105 600.936523 L 105 652.968262 L 105 705 L 95.5 705 L 86 705 L 86 672.5 C 86 642.102173 85.885773 640 84.234009 640 C 82.925583 640 79.237503 646.4776 70 665 C 57.531982 690 57.531982 690 52.785797 690 C 48.039627 690 48.039627 690 34.481682 663 C 27.024811 648.150024 20.490898 636 19.961868 636 C 19.364632 636 19 649.07843 19 670.5 L 19 705 L 9.5 705 Z M 133.981995 705 L 134.5 601.5 L 144.25 601.213745 L 154 600.927612 L 154 652.963806 L 154 705 L 143.990997 705 Z M 182 705 L 182 601 L 191.25 601.023254 C 200.5 601.046509 200.5 601.046509 210.5 615.667236 C 216 623.708679 224.774994 636.230713 230 643.493896 C 235.225006 650.757141 241.627625 659.682007 244.228027 663.326965 C 247.119049 667.379211 249.473633 669.755493 250.288177 669.442871 C 251.373535 669.026428 251.538971 662.639832 251.181213 634.96582 L 250.742126 601 L 260.371063 601 L 270 601 L 270 653 L 270 705 L 260.606628 705 C 251.213257 705 251.213257 705 235.403168 682.75 C 226.707611 670.512512 215.747131 654.995239 211.046539 648.267212 C 206.345947 641.539185 202.162506 636.026733 201.75 636.017212 C 201.337494 636.007751 201 651.525024 201 670.5 L 201 705 L 191.5 705 Z M 298 705 L 298 600.779175 L 323.25 601.239014 C 345.590179 601.645874 349.249054 601.945435 355 603.838989 C 358.575012 605.016113 363.75 607.278992 366.5 608.867676 C 369.25 610.456299 373.59964 614.001221 376.165863 616.745239 C 378.732086 619.489258 381.997803 624.035522 383.423004 626.848022 C 384.848206 629.660522 386.679413 634.782837 387.492371 638.230835 C 388.305298 641.678894 388.977081 648.140503 388.985229 652.590027 C 388.994141 657.478271 388.201202 663.803345 386.981659 668.571655 C 385.871582 672.912109 383.509094 678.882202 381.731659 681.838562 C 379.954254 684.794983 376.13739 689.38269 373.249756 692.033508 C 370.362122 694.684326 365.629272 698.012817 362.7323 699.430176 C 359.835358 700.847473 354.322968 702.672729 350.482544 703.486206 C 345.508392 704.539856 336.956421 704.970276 320.75 704.982666 Z M 411 705 L 411 601 L 420.5 601 L 430 601 L 430 644.5 L 430 688 L 453.5 688 L 477 688 L 477 696.5 L 477 705 L 444 705 Z M 497 705 L 497 601 L 506.5 601 L 516 601 L 516 653 L 516 705 L 506.5 705 Z M 660.981995 705 L 661.5 601.5 L 671.25 601.213745 L 681 600.927612 L 681 621.963745 L 681 643 L 703.979736 643 L 726.959412 643 L 727.229736 622.25 L 727.5 601.5 L 737.25 601.213745 L 747 600.927612 L 747 652.963806 L 747 705 L 737 705 L 727 705 L 727 682.5 L 727 660 L 704 660 L 681 660 L 681 682.5 L 681 705 L 670.991028 705 Z M 796 705 L 796 618 L 779.959534 618 L 763.919128 618 L 764.209534 609.75 L 764.5 601.5 L 805.75 601.238892 L 847 600.977783 L 847 609.488892 L 847 618 L 831.5 618 L 816 618 L 816 661.5 L 816 705 L 806 705 Z M 317 617.748108 L 317 688 L 327.75 687.979126 C 333.662506 687.967712 341.224335 687.387146 344.554077 686.688965 C 347.88382 685.990845 352.740295 684.170166 355.346252 682.642944 C 357.952179 681.115784 361.4198 678.022705 363.052032 675.76947 C 364.684265 673.516235 366.690277 669.414673 367.509857 666.654846 C 368.386475 663.703003 369 657.609863 369 651.856018 C 369 644.346558 368.50885 640.762329 366.885193 636.422729 C 365.683563 633.21106 363.142334 629.142334 361 627 C 358.867004 624.867004 354.682648 622.24939 351.364807 620.972595 C 346.592346 619.135986 342.845825 618.625488 331.25 618.231812 Z M 390 511 C 388.961334 511 386.972137 509.987488 385.579529 508.75 C 383.147644 506.588928 382.88916 505.186066 379.040405 473.260559 C 375.900116 447.211853 375.274048 439.492645 376.146332 437.578156 C 376.758545 436.234528 378.517456 434.614105 380.055023 433.977203 C 382.24408 433.070465 383.463379 433.111694 385.675293 434.167175 C 387.595886 435.083679 388.898285 436.792999 389.744293 439.507568 C 390.42868 441.7034 392.366547 454.975006 394.05069 469 C 395.734833 483.024994 397.19989 497.124298 397.306396 500.331787 C 397.481232 505.598358 397.228088 506.397919 394.694244 508.581787 C 393.151062 509.911804 391.038666 511 390 511 Z M 160.656235 504 C 159.317169 504 157.208282 503.179504 155.969833 502.176666 C 153.997864 500.579865 153.614044 498.995728 152.880615 489.426666 C 152.420013 483.416992 151.322525 467.475006 150.441757 454 C 149.561005 440.524994 148.763794 425.976288 148.670197 421.669556 C 148.515289 414.542297 148.712006 413.666687 150.860779 411.919556 C 152.15921 410.8638 154.271622 410 155.555023 410 C 156.838425 410 159.073792 411.019562 160.522507 412.265686 C 162.961838 414.363922 163.221481 415.380219 164.035187 426.015686 C 164.518463 432.332062 165.381271 444.700012 165.95256 453.5 C 166.523849 462.299988 167.28598 476.09021 167.646179 484.144928 C 168.301056 498.789856 168.301056 498.789856 165.695984 501.394928 C 164.263199 502.827728 161.9953 504 160.656235 504 Z M 349 296.679993 C 379.612488 311.134521 396.149994 319.043457 405.5 323.580872 C 414.850006 328.118347 424.862488 333.417969 427.75 335.35791 L 433 338.88501 L 433.032654 190.192505 C 433.063171 51.062317 433.178162 41.173523 434.820374 36.423157 C 435.785645 33.63092 438.259949 29.051575 440.318848 26.246826 C 442.377747 23.442017 446.138367 19.772095 448.675842 18.091309 C 451.213318 16.410583 455.811829 14.085693 458.894714 12.924866 C 463.578491 11.161316 468.774353 10.584412 490.5 9.415649 C 504.799988 8.646301 535.512268 7.10791 558.749451 5.997009 C 581.986633 4.886108 614.83667 3.269836 631.749451 2.405334 C 648.662231 1.540771 667.900024 0.782043 674.5 0.719238 C 684.763367 0.621582 687.325134 0.930847 692.20166 2.856262 C 695.337524 4.094421 700.161255 7.137634 702.921082 9.618958 C 706.115967 12.491394 709.130676 16.551147 711.219421 20.793823 C 714.5 27.457336 714.5 27.457336 714.83728 204.478638 C 715.046631 314.380005 714.810791 383.774994 714.215271 387.5 C 713.687683 390.799988 712.231445 395.674469 710.979248 398.332184 C 709.727051 400.989868 706.484192 405.591522 703.772949 408.558044 C 700.687256 411.934296 696.534912 415.08197 692.671692 416.973328 C 689.277283 418.635193 684.25 420.412842 681.5 420.923645 C 678.159058 421.544189 669.200012 421.379364 654.5 420.426849 C 642.400024 419.642853 623.049988 418.331177 611.5 417.512054 C 599.950012 416.692932 580.262878 415.33725 567.750854 414.49942 C 555.23877 413.661591 531.838806 412.082397 515.750854 410.990082 C 499.662903 409.897766 482.560791 408.71344 477.746277 408.358246 C 468.992493 407.712463 468.992493 407.712463 469.515198 410.606232 C 469.802673 412.197815 472.52948 429.25 475.574768 448.5 C 478.620056 467.75 481.382141 486.837494 481.712769 490.916626 C 482.293396 498.080383 482.221375 498.412811 479.601196 500.666626 C 478.109192 501.949982 476.07428 503 475.079102 503 C 474.083923 503 472.114319 502.091156 470.702209 500.980377 C 468.949524 499.601715 467.783203 497.300781 467.027344 493.730377 C 466.418335 490.853668 464.350647 478.375 462.432434 466 C 460.514282 453.625 457.367249 434.049988 455.439087 422.5 C 453.510925 410.950012 451.045105 397.914185 449.959534 393.531525 C 448.873962 389.148834 445.999023 381.478943 443.570679 376.487305 C 440.519714 370.215576 437.141541 365.236145 432.636719 360.370483 C 429.05127 356.497925 422.60376 351.022827 418.308899 348.203552 C 414.014008 345.384277 401.838501 339.007996 391.252258 334.034058 C 380.665985 329.060059 364.465973 321.452881 355.252258 317.129211 C 338.5 309.267944 338.5 309.267944 325 311.100769 C 317.575012 312.108765 305.485321 313.447083 298.134033 314.074707 C 288.042206 314.93634 282.040649 314.930603 273.634033 314.051331 C 267.510315 313.410828 258 312.015686 252.5 310.951111 C 247 309.886475 238.787994 307.834167 234.251068 306.390442 C 226.002136 303.765442 226.002136 303.765442 208.751068 311.528931 C 199.26297 315.798828 186.275848 321.930054 179.890778 325.153809 C 173.505707 328.377563 164.641464 333.725098 160.192459 337.03717 C 155.743454 340.349243 150.047394 345.408325 147.534561 348.279541 C 145.021713 351.150818 141.202805 356.887329 139.04808 361.027344 C 136.893356 365.167419 134.218735 371.844604 133.104492 375.86554 C 131.990234 379.886444 130.374664 389.324127 129.514359 396.838135 C 128.654037 404.352173 126.170349 428.5 123.995056 450.5 C 121.819763 472.5 119.587601 491.519135 119.034714 492.76474 C 118.481827 494.010315 116.931015 495.529938 115.58847 496.141632 C 114.245926 496.753357 111.976379 496.9599 110.545044 496.600647 C 108.908127 496.189819 107.332169 494.667389 106.297256 492.497162 C 104.838898 489.438965 104.781479 487.595062 105.792038 476.273407 C 106.419128 469.248016 108.062485 451.799988 109.443954 437.5 C 110.825424 423.200012 112.690781 404.975006 113.589188 397 C 114.48761 389.024994 116.270752 378.341003 117.551758 373.257813 C 118.832748 368.174622 121.131271 361.229309 122.659576 357.823792 C 124.187881 354.418274 127.07605 349.127258 129.077728 346.065979 C 131.079407 343.0047 135.629425 337.652161 139.188904 334.171448 C 142.748367 330.690735 149.328217 325.221252 153.810806 322.016968 C 158.293381 318.812744 166.807236 313.728149 172.730469 310.717896 C 178.653717 307.707642 188.899994 302.891968 195.5 300.016296 C 202.100006 297.140686 211.662842 292.838989 216.750763 290.457031 C 223.460602 287.315735 226.256897 285.454529 226.931122 283.681152 C 227.442413 282.336365 228.324127 277.904297 228.890533 273.832092 C 229.45694 269.759827 230.229797 259.189392 230.608063 250.342163 C 231.295746 234.256287 231.295746 234.256287 224.630707 222.235718 C 220.964935 215.624451 215.312622 204.654297 212.070007 197.857605 C 208.827423 191.060913 204.559296 180.841492 202.585297 175.147766 C 200.611298 169.454041 198.097046 160.383362 196.998108 154.990662 C 195.583649 148.049927 195.003845 141.288269 195.013123 131.842896 C 195.022095 122.757202 195.620911 115.628479 196.890015 109.5 C 197.9151 104.549988 200.116974 96.997192 201.783112 92.716003 C 203.449249 88.434814 206.629547 81.909851 208.850433 78.216003 C 211.07132 74.522217 214.933624 68.927185 217.433258 65.782593 C 219.932922 62.638 225.216522 57.3927 229.174622 54.126282 C 233.13269 50.859924 239.863312 46.326721 244.131561 44.052551 C 248.399811 41.77832 255.051544 38.842957 258.913208 37.529541 C 262.774841 36.216064 269.436646 34.547119 273.717194 33.82074 C 277.997742 33.09436 286 32.5 291.5 32.5 C 297 32.5 305.46991 33.080078 310.321991 33.789063 C 315.174103 34.498047 322.824097 36.224792 327.321991 37.626343 C 331.819916 39.027893 338.424988 41.757935 342 43.693115 C 345.575012 45.628235 351.480042 49.414001 355.122314 52.105774 C 360.010254 55.718201 362.639679 57 365.162201 57 C 367.041901 57 371.152466 57.670105 374.296814 58.489075 C 377.441162 59.308105 382.673859 61.320984 385.925018 62.962158 C 389.176178 64.603333 394.10318 68.249146 396.873932 71.063904 C 399.644684 73.878723 403.056549 78.479187 404.455841 81.287231 C 406.081787 84.550049 406.992065 88.036194 406.978027 90.94635 C 406.965973 93.450867 406.134033 97.30957 405.129303 99.521301 C 404.124603 101.733032 400.995911 105.616516 398.176666 108.151245 C 393.050781 112.759888 393.050781 112.759888 394.379242 117.629944 C 395.109924 120.308472 396.78598 126.058411 398.103851 130.407593 C 399.948364 136.494812 400.470642 140.408386 400.372528 147.407593 C 400.302429 152.408447 400.270172 160.325012 400.300873 165 C 400.331543 169.674988 400.388916 179.799988 400.428314 187.5 C 400.483643 198.304443 399.976929 204.124939 398.208405 213 C 396.947998 219.325012 394.357849 230.97467 392.452454 238.888184 C 390.547058 246.801697 387.798889 255.926331 386.345428 259.1651 C 384.891937 262.403931 382.10495 266.456665 380.152161 268.171265 C 378.199371 269.885864 374.553741 272.208618 372.050812 273.332947 C 368.896393 274.749878 364.661652 275.509338 358.25 275.807861 C 349 276.238586 349 276.238586 349 286.45929 Z M 291 297.503967 C 305.250153 297.222473 316.040619 296.475769 323 295.289612 C 333.5 293.5 333.5 293.5 333.809814 288.627075 C 333.980194 285.94696 333.870575 283.246948 333.566162 282.627075 C 333.26178 282.007202 334.072205 271.617065 334.538879 266 C 334.981781 260.669128 335.816406 256.847534 336.777527 255.75 C 337.649231 254.754517 339.715698 254 341.570221 254 C 343.89682 254 345.641327 254.859131 347.661987 257 C 350.252594 259.744751 351.055481 260 357.098877 260 C 362.292725 260 364.430328 259.516357 367.102112 257.736816 C 368.970947 256.492065 371.295654 253.852539 372.268127 251.871277 C 373.240601 249.889954 375.590759 241.608704 377.490692 233.468445 C 379.390656 225.328186 381.911469 213.005188 383.092529 206.083984 C 384.920776 195.369995 385.124695 191.642456 384.464722 181 C 384.038361 174.125 383.695892 166.924988 383.703644 165 C 383.711426 163.075012 384.072327 158.228516 384.505615 154.230042 C 384.938904 150.231567 385.101196 146.767822 384.866241 146.532898 C 384.631287 146.297913 383.742157 145.838257 382.890381 145.511414 C 381.69812 145.053894 380.921387 146.305481 379.515076 150.950195 C 378.510437 154.268311 376.859558 158.34613 375.846527 160.011963 C 374.833466 161.677856 372.911743 163.538696 371.57605 164.147278 C 370.240326 164.75592 367.993011 164.96405 366.58197 164.609924 C 364.805817 164.164124 363.242249 162.438171 361.5 159 C 359.836304 155.716858 358.170685 153.829956 356.5849 153.431946 C 355.265656 153.10083 353.325043 153.290833 352.2724 153.854187 C 351.219788 154.417542 349.546631 156.679016 348.55426 158.879639 C 347.422485 161.389526 346.75 165.256348 346.75 169.254517 C 346.75 172.760071 347.515289 178.299377 348.450623 181.564087 C 349.385986 184.828857 351.69223 190.328003 353.575623 193.784424 C 355.459045 197.240845 357 201.145691 357 202.461853 C 357 203.855957 355.900177 205.719971 354.365143 206.927429 C 352.885132 208.091614 350.255371 209 348.365143 209 C 346.483917 209 344.228302 208.224487 343.25 207.241272 C 342.287506 206.273987 340.475311 204.136475 339.222931 202.491272 C 336.945862 199.5 336.945862 199.5 335.424591 201.639099 C 334.587891 202.815613 332.316467 206.415588 330.376984 209.639099 C 328.4375 212.86261 325.019928 217.874939 322.78241 220.777649 C 320.544861 223.680298 315.863037 228.323975 312.378326 231.096802 C 308.893616 233.86969 303.387451 237.465149 300.142395 239.086731 C 296.897339 240.708252 290.503296 242.98053 285.933411 244.136169 C 279.102905 245.863464 275.656281 246.149292 266.562256 245.742554 C 260.284393 245.461792 253.70755 244.580811 251.355591 243.705505 C 247.211212 242.163208 247.211212 242.163208 246.488403 254.331604 C 246.090881 261.024231 245.206787 270.826416 244.523773 276.114258 C 243.840759 281.4021 242.595856 287.10376 241.757294 288.784668 C 240.232666 291.840881 240.232666 291.840881 246.404388 293.511475 C 249.798828 294.430298 256.383972 295.80011 261.038055 296.55542 C 267.055756 297.532043 275.710266 297.80603 291 297.503967 Z M 272 229.53363 C 276.125 229.292664 282.424988 228.185242 286 227.072754 C 289.575012 225.960205 294.753296 223.52533 297.507294 221.661865 C 300.261322 219.798401 305.241089 215.359131 308.573456 211.796814 C 312.324646 207.786804 316.378052 201.926331 319.215851 196.409973 C 321.736816 191.50946 325.135071 183.674988 326.767548 179 C 328.399994 174.325012 330.065582 167.807922 330.468811 164.517578 C 330.87207 161.227234 332.102661 156.127869 333.203522 153.185608 C 334.304352 150.243347 336.578796 146.271423 338.257843 144.359131 C 339.93689 142.446777 343.022827 140.008667 345.115479 138.941101 C 347.401398 137.774902 350.945068 137 353.992279 137 C 356.78186 137 360.652496 137.663635 362.593719 138.474731 C 366.123199 139.949402 366.123199 139.949402 367.457184 136.724731 C 368.190887 134.951111 369.714691 130.349976 370.843414 126.5 C 371.972137 122.650024 373.859253 115.622803 375.036987 110.884033 C 377.099365 102.585754 377.331787 102.184021 381.339172 99.98877 C 383.627625 98.735168 386.512512 96.796387 387.75 95.68042 C 389.072754 94.487549 390 92.488037 390 90.828552 C 390 89.015442 388.767242 86.641235 386.553558 84.190979 C 384.65802 82.092834 380.770142 79.104187 377.913849 77.549622 C 374.055481 75.449646 370.517181 74.499756 364.148438 73.854248 C 357.603241 73.190796 354.662872 72.38092 351.71344 70.429077 C 349.588898 69.023132 346.086273 65.944641 343.367859 64.450989 C 340.353577 62.7948 336.174866 60.207092 334 59 C 329.140045 56.302673 328.995514 56.004272 322.75 54.104736 C 318.762512 52.891907 312.125 51.402771 308 50.795471 C 303.714966 50.164612 294.927429 49.924072 287.5 50.234314 C 278.07663 50.627869 272.574127 51.385315 267.5 52.987305 C 263.649994 54.20282 257.522858 56.751953 253.884125 58.652039 C 250.245392 60.552124 244.635681 64.2276 241.418121 66.819763 C 238.200531 69.411865 233.195557 74.450378 230.295898 78.016357 C 227.396271 81.582336 223.227905 88.099976 221.032867 92.5 C 218.83783 96.900024 216.0896 104.099976 214.92572 108.5 C 213.605164 113.492188 212.60791 121.07135 212.273285 128.658569 C 211.889526 137.359741 212.190552 143.501465 213.331879 150.257019 C 214.209076 155.448975 216.904999 165.306274 219.322876 172.162109 C 221.740723 179.017944 226.501556 190.223633 229.902466 197.06366 C 233.303375 203.903625 237.887665 212.539063 240.089722 216.25354 C 243.082977 221.30249 245.126312 223.533936 248.185486 225.094666 C 250.436096 226.242798 255.027557 227.809875 258.388733 228.576965 C 262.01947 229.405579 267.54422 229.793884 272 229.53363 Z"/>
    <linearGradient id="linearGradient1" x1="449.087804" y1="205.20023" x2="697.978353" y2="205.20023" gradientUnits="userSpaceOnUse">
        <stop offset="0" stop-color="#c0dfea" stop-opacity="1"/>
        <stop offset="1" stop-color="#98d0e7" stop-opacity="1"/>
    </linearGradient>
    <path id="path1" fill="url(#linearGradient1)" fill-rule="evenodd" stroke="none" d="M 490.079102 392.854553 C 488.110596 392.774536 482.071167 392.37323 476.658203 391.962738 C 471.245178 391.552246 466.479187 390.8302 466.067017 390.358185 C 465.654846 389.8862 464.287903 386.350006 463.029358 382.5 C 461.770813 378.650024 459.405457 372.799988 457.77301 369.5 C 456.140564 366.200012 453.611267 361.474976 452.152466 359 C 450.693604 356.525024 449.348022 353.649902 449.162231 352.610901 C 448.85199 350.875916 449.300659 350.776123 454.662231 351.38739 C 457.872986 351.753418 466.77594 352.939453 474.446533 354.02301 C 482.117126 355.106506 488.760315 356.360352 489.209229 356.809265 C 489.658142 357.258179 490.486084 362.772217 491.049072 369.062744 C 491.612122 375.35321 492.429504 383.3125 492.865479 386.75 C 493.658264 393 493.658264 393 490.079102 392.854553 Z M 697.25 283.906189 C 696.837524 283.854553 692.900024 281.989868 688.5 279.76239 C 684.099976 277.534912 675.357666 273.267273 669.072571 270.278809 C 662.787476 267.290283 656.196289 263.39624 654.425415 261.625427 C 652.31366 259.513672 650.451904 256.012939 649.015381 251.45282 C 647.460022 246.515503 646.672363 240.876526 646.298279 232 C 645.927185 223.194824 646.174683 217.883728 647.135742 214.031982 C 648.325134 209.264893 649.076843 208.18811 653 205.631653 C 655.474976 204.01886 659.436646 200.854492 661.80365 198.59967 C 664.170654 196.344849 667.545654 191.585693 669.30365 188.023743 C 671.960449 182.640686 672.56012 180.136353 672.85614 173.188049 C 673.186768 165.427612 672.986023 164.382874 670.054138 158.606628 C 666.895935 152.384583 666.895935 152.384583 668.012146 143.442261 C 668.626099 138.524048 668.824158 131.799988 668.452271 128.5 C 668.080444 125.200012 666.713501 119.125 665.414673 115 C 664.115845 110.875 661.431885 105.025024 659.450317 102 C 657.46875 98.974976 653.744263 94.343384 651.173706 91.707581 C 648.603149 89.071716 643.705444 85.093079 640.289856 82.866089 C 636.874207 80.639038 630.726685 77.515015 626.628601 75.923767 C 622.530579 74.332458 614.975159 72.300964 609.838806 71.409302 C 603.570618 70.321228 598.141357 69.99884 593.32666 70.428833 C 589.381348 70.781189 583.531372 71.735657 580.32666 72.549805 C 577.122009 73.363953 571.33728 75.573547 567.471741 77.460083 C 563.606201 79.346558 557.461853 83.147217 553.817688 85.905945 C 550.173462 88.664673 546.218079 92.289368 545.027832 93.960876 C 543.047424 96.742126 542.376709 97 537.123047 97 C 532.367126 97 530.412842 97.583801 525.730957 100.403076 C 522.622681 102.27478 516.349121 106.403992 511.789795 109.579041 C 507.230408 112.754089 499.426331 119.435181 494.447388 124.425903 C 488.893921 129.992554 483.382629 136.774536 480.189209 141.971558 C 477.326111 146.630859 473.353638 154.64978 471.36145 159.79126 C 468.328857 167.618042 467.150208 169.517761 464.119629 171.463867 C 462.128845 172.742249 458.756104 175.600098 456.624634 177.814636 C 454.439819 180.084656 451.515869 185.47168 451 185 C 450.092773 184.170532 450 169.495911 450 112.413269 C 450 52.901428 450.201477 43.536926 451.554688 40.154968 C 452.409729 38.017883 454.322266 35.107666 455.804688 33.687744 C 457.287109 32.267822 460.293091 30.357056 462.484619 29.441589 C 465.069153 28.361938 471.56958 27.456238 480.984619 26.863953 C 488.968079 26.361694 509.337646 25.2901 526.250366 24.482605 C 543.163025 23.67511 571.175537 22.335327 588.500366 21.505249 C 605.825195 20.675232 633.513 19.308167 650.02887 18.467285 C 671.808105 17.358459 681.136108 17.228821 683.983337 17.995544 C 686.142517 18.576904 689.343567 20.259644 691.096802 21.734924 C 692.850098 23.210205 695.110657 26.235901 696.120361 28.458618 C 697.869751 32.309998 697.957092 38.411377 697.978027 158.25 C 697.990112 227.412476 697.662476 283.957764 697.25 283.906189 Z M 478.594421 268.750122 C 474.688782 269.305054 474.688782 269.305054 475.260376 265.902527 C 475.574768 264.031128 480.079956 251.924988 485.271973 239 C 490.463989 226.075012 496.364807 211.169067 498.384888 205.875671 C 501.407288 197.955994 503.025818 195.251953 507.523132 190.608704 C 510.528992 187.505188 514.277893 182.386169 515.853943 179.232971 C 517.430054 176.079834 519.93335 169.821289 521.416931 165.325012 C 522.900452 160.828796 524.756104 156.617371 525.540588 155.966309 C 526.696899 155.006653 527.159302 155.288757 527.983398 157.456421 C 528.542542 158.927002 529.008789 164.038391 529.019531 168.815125 C 529.030273 173.591797 529.668701 182.224976 530.438232 188 C 531.207825 193.775024 533.369324 203.071533 535.241516 208.658997 C 537.11377 214.24646 540.187805 221.375977 542.072754 224.502319 C 543.957764 227.628723 547.075012 232.021057 549 234.263062 C 550.924988 236.505066 552.79718 239.093262 553.1604 240.014587 C 553.523621 240.935974 553.169678 244.797119 552.37384 248.59491 C 551.578003 252.3927 550.380066 256.04718 549.711792 256.715881 C 549.043579 257.384644 538.82251 259.282776 526.998413 260.93396 C 515.174255 262.585144 500.325012 264.894409 494 266.065674 C 487.674988 267.236938 480.742493 268.444946 478.594421 268.750122 Z"/>
    <linearGradient id="linearGradient2" x1="449.406649" y1="245.098156" x2="698.000002" y2="245.098156" gradientUnits="userSpaceOnUse">
        <stop offset="0" stop-color="#a5f8ff" stop-opacity="1"/>
        <stop offset="1" stop-color="#5ec8fe" stop-opacity="1"/>
    </linearGradient>
    <path id="path2" fill="url(#linearGradient2)" fill-rule="evenodd" stroke="none" d="M 650.89093 277.860596 L 698 300.29834 L 698 342.971008 C 698 378.738586 697.751221 386.373779 696.462769 390.155273 C 695.617249 392.636627 693.254761 396.297516 691.212769 398.290558 C 689.170715 400.2836 685.530945 402.608551 683.124268 403.457123 C 680.717651 404.305695 676.217651 404.947388 673.124268 404.883118 C 670.030945 404.818817 652.309875 403.733124 633.744141 402.470428 C 615.178406 401.207764 581.653442 399.000031 559.244141 397.564362 C 536.834839 396.128693 514.292358 394.289307 512 394 C 507.832092 393.473999 510.164185 393.902069 509.053406 387.20105 C 508.442505 383.515472 507.089844 374.630188 506.047546 367.455933 C 505.005249 360.281738 503.623474 347.906738 502.976929 339.955933 C 502.135925 329.613464 501.358765 325.002014 500.245728 323.75 C 499.390076 322.787476 497.720764 322 496.536133 322 C 495.351501 322 493.596497 322.574524 492.636169 323.276794 C 491.675781 323.979004 490.475525 326.341492 489.968872 328.526794 C 489.462219 330.712036 489.036987 334.1875 489.023865 336.25 C 489 340 489 340 484.105957 340 C 481.414246 340 474.695801 340.546509 469 340 C 463.304199 339.45343 454.337524 339.312134 452 339 C 447.75 338.432434 450 336.877441 450.01532 269.688721 C 450.024231 230.68457 450.399231 203.082092 450.909363 203.887573 C 451.585266 204.954834 452.447449 204.36853 454.644043 201.3479 C 456.214844 199.187927 459.180603 195.37561 461.23468 192.876038 C 463.288696 190.376526 467.114624 187.01532 469 186 C 472.427917 184.153931 473.183838 184.649353 477 188 C 479.098877 189.842834 478.976868 189.938477 481 191 C 483.945801 192.545654 487.027527 194.753052 486.606384 196.426819 C 486.319519 197.567078 480.852661 211.325012 474.457886 227 C 468.063049 242.674988 460.991211 260.224976 458.742554 266 C 456.041138 272.937805 454.627991 278.180847 454.577026 281.454529 C 454.511108 285.693848 454.7995 286.502441 457 287 C 459.277832 287.515015 460.633545 287.48468 466 286 C 469.655701 284.988647 478.155151 283.982727 485.067017 282.605286 C 491.978882 281.227905 504.128906 279.178284 512.067017 278.050598 C 520.005188 276.922974 530.887573 275.408569 536.250183 274.685242 C 546.000366 273.370178 546.000366 273.370178 547.663269 279.29657 C 548.620422 282.707947 551.105469 287.640076 553.519043 290.91864 C 555.825134 294.05127 560.163574 298.241577 563.159912 300.230469 C 566.156311 302.21936 571.508667 304.828308 575.053955 306.028076 C 579.846863 307.650085 583.958252 308.220459 591.08551 308.252136 C 598.245483 308.283936 602.536194 307.72821 608.042419 306.055725 C 612.09668 304.82428 618.358215 302.325684 621.956909 300.503235 C 625.555603 298.680786 630.389038 295.811218 632.697876 294.126343 C 635.006714 292.441467 640.044678 288.092407 643.893372 284.461792 L 650.89093 277.860596 Z M 591.281555 293.921082 C 586.283325 293.876099 580.700928 293.204651 578.324219 292.362488 C 576.027527 291.548645 572.025452 289.014099 569.430725 286.730103 C 566.835999 284.446106 563.887451 280.76001 562.878479 278.538696 C 561.869446 276.317444 561.034058 272.86969 561.021973 270.877136 C 561.009888 268.884521 561.894592 265.231812 562.988037 262.76001 C 564.081421 260.288147 565.346863 256.518433 565.800049 254.382874 C 566.430786 251.410645 567.078552 250.53241 568.562012 250.638184 C 569.62793 250.714172 573.526306 251.563538 577.225159 252.525696 C 582.234436 253.828796 586.31665 254.149048 593.225159 253.781067 C 600.659119 253.38501 604.016663 252.653503 610.141418 250.095398 C 614.344177 248.340027 620.638 244.916809 624.127686 242.48822 C 627.617432 240.059631 630.747742 238.393799 631.084045 238.786316 C 631.420288 239.178833 632.445618 243.439758 633.362549 248.255005 C 634.279419 253.07019 636.111328 259.455872 637.433411 262.445313 C 639.837158 267.880676 639.837158 267.880676 631.668579 275.711548 C 627.175842 280.018555 620.950439 284.977783 617.83429 286.732178 C 614.71814 288.486572 609.444824 290.839539 606.115845 291.960999 C 601.731812 293.437866 597.642029 293.97821 591.281555 293.921082 Z M 589.5 239.907288 C 586.200012 239.884705 581.603699 239.27356 579.286011 238.549255 C 576.968384 237.82489 573.082947 236.066589 570.651794 234.641846 C 568.220642 233.217102 564.111572 229.693481 561.520508 226.811584 C 558.929504 223.929749 555.230896 218.437073 553.301453 214.605774 C 551.372009 210.774414 548.739136 203.483582 547.450562 198.403931 C 546.161987 193.324341 544.643738 184.517883 544.076599 178.834106 C 543.50946 173.15033 542.777527 160.510071 542.450073 150.744568 C 541.854675 132.989075 541.854675 132.989075 546.335022 127.744568 C 548.799194 124.860046 551.368103 121.286743 552.04364 119.803833 C 552.84491 118.045105 553.031494 115.295044 552.580322 111.893982 C 551.888672 106.680237 551.888672 106.680237 557.520752 101.438721 C 560.618347 98.555908 565.91217 94.72644 569.28479 92.928894 C 572.65741 91.131287 577.994568 88.858276 581.145081 87.877686 C 584.295654 86.897156 590.164368 85.817566 594.186646 85.478638 C 598.909851 85.080627 604.408875 85.387024 609.713196 86.343689 C 614.433044 87.195007 621.025635 89.316345 625.213196 91.331238 C 630.085205 93.675598 634.434082 96.796204 638.336243 100.748047 C 641.546143 103.99884 645.462769 108.86792 647.039856 111.568237 C 648.616943 114.268616 650.668274 119.289246 651.598328 122.72522 C 653.015747 127.961548 653.17511 131.471924 652.582947 144.41803 C 651.913879 159.047058 651.978638 159.918213 653.807922 160.897217 C 654.870178 161.465698 656.525146 163.586914 657.485657 165.610962 C 658.723572 168.219727 659.058105 170.559631 658.634644 173.648743 C 658.306152 176.045471 657.168396 179.692444 656.106323 181.753174 C 655.04425 183.813965 652.67334 186.89978 650.837646 188.610657 C 649.001953 190.321472 646.040955 192.553955 644.25769 193.571716 C 641.78241 194.984375 639.852234 197.797119 636.098938 205.46106 C 632.931946 211.927795 629.196594 217.686951 625.601501 221.645935 C 622.531921 225.026245 617.428406 229.522278 614.260254 231.637146 C 611.092102 233.752014 605.575012 236.487183 602 237.715332 C 597.99231 239.092163 593.199402 239.932617 589.5 239.907288 Z M 492.531921 181 C 489.628418 181 487.619141 180.619141 485 178 C 481.633606 174.633545 482.0672 174.267151 484.687317 167.383606 C 486.128357 163.597595 488.425537 158.25 489.792175 155.5 C 491.158752 152.75 493.964478 148.010925 496.0271 144.968811 C 498.089783 141.926636 502.747131 136.659485 506.376831 133.264099 C 510.006531 129.868652 515.794128 125.176331 519.238159 122.83667 C 522.68219 120.496948 527.402222 117.51886 529.727112 116.218628 C 533.595825 114.055054 534.138123 113.983337 536.122314 115.373108 C 538.252197 116.864929 538.081055 117.108093 526.395142 129.195801 C 514.51416 141.485352 514.496582 141.510681 511.639709 150.5 C 510.066528 155.450012 507.427734 162.784851 505.775696 166.799683 C 504.123657 170.814453 501.307678 175.651978 499.517944 177.549683 C 496.937439 180.285767 495.491333 181 492.531921 181 Z"/>
    <path id="path3" fill="#3a93ee" fill-rule="evenodd" stroke="none" d="M 503.049988 393.863831 C 500.547485 393.78891 497.508789 393.5354 496.297302 393.300476 C 495.085754 393.065521 493.8703 392.114288 493.596191 391.186646 C 493.322083 390.259003 492.596375 383.875 491.983398 377 C 491.370483 370.125 490.649475 362.61145 490.381226 360.303284 C 489.908569 356.236572 489.763428 356.088379 485.696716 355.519653 C 483.38855 355.196838 474.299988 353.935364 465.5 352.71637 C 449.5 350.5 449.5 350.5 449.844849 344.5 C 450.034485 341.200012 450.484497 338.221558 450.844849 337.881165 C 451.2052 337.540833 454.650024 337.627014 458.5 338.072754 C 462.349976 338.518433 470.723083 339.198242 477.106812 339.583496 C 488.713623 340.283875 488.713623 340.283875 489.42395 333.074768 C 489.926819 327.971863 490.699036 325.300964 492.0672 323.9328 C 493.130249 322.869751 494.813965 322 495.808899 322 C 496.803772 322 498.424622 322.589966 499.410767 323.311096 C 500.733643 324.278381 501.4422 326.835083 502.113037 333.061096 C 502.613159 337.702515 503.689087 347.575012 504.504028 355 C 505.31897 362.424988 506.817566 373.76886 507.83429 380.208618 C 509.11554 388.324524 509.36322 392.236786 508.641357 392.958618 C 508.068604 393.531372 505.55249 393.938721 503.049988 393.863831 Z M 650.86438 277.885681 C 640.038696 288.098083 635.006714 292.458801 632.697876 294.164795 C 630.389038 295.870789 624.900024 298.970032 620.5 301.051941 C 616.099976 303.13385 609.735046 305.548889 606.355652 306.41864 C 602.740784 307.348999 596.359802 307.971313 590.855652 307.930359 C 585.516113 307.890625 579.367004 307.206299 576.531067 306.336243 C 573.798157 305.497803 569.523132 303.767334 567.031067 302.490784 C 564.539001 301.214172 560.700012 298.425232 558.5 296.29303 C 554.635437 292.547607 554.673645 292.971313 551 289 C 549.089111 286.934265 548.080261 283.238953 547.698975 279.034729 C 547.163818 273.133667 545.852905 273.404358 528.676453 275.671753 C 519.229431 276.918823 504.75 279.083984 496.5 280.483215 C 488.25 281.882446 476.703003 284.205078 470.840027 285.644653 C 464.556152 287.187561 459.123108 287.996704 457.605286 287.615784 C 455.918762 287.192505 454.798767 286.046448 454.358887 284.293823 C 453.989563 282.822144 454.235596 279.566528 454.90564 277.059021 C 455.575684 274.551575 459.19873 264.849976 462.956787 255.5 C 466.714905 246.150024 473.456543 229.5 477.938293 218.5 C 482.419983 207.5 486.321167 197.567078 486.607483 196.426819 C 487.027649 194.753418 486.388489 194.063171 483.292786 192.847168 C 481.183411 192.018555 477.740234 189.832825 475.641357 187.98999 C 471.825195 184.639343 471.825195 184.639343 468.242188 186.568909 C 466.271545 187.630188 462.755005 191.562134 460 195 C 456.447754 199.432922 452.645691 205 451 205 C 448.751099 205 450 200.732422 450 192.333313 C 450 187.56665 450.284729 183.951416 450.632751 184.299438 C 450.980774 184.647461 452.181274 183.709961 453.300476 182.216064 C 454.419739 180.722229 456.722473 177.983826 458.417725 176.130737 C 460.112976 174.277649 462.922852 172.150696 464.661865 171.404175 C 467.176941 170.324463 468.181091 168.96814 469.57074 164.773438 C 470.531616 161.873047 472.584167 156.672485 474.13208 153.216553 C 475.679932 149.760681 478.952209 143.832397 481.403809 140.042603 C 483.855408 136.252808 489.155029 129.683594 493.180664 125.444458 C 497.206299 121.205261 504.801636 114.664917 510.059265 110.910339 C 515.316833 107.155762 522.29187 102.453674 525.559265 100.461304 C 530.901184 97.203918 532.026672 96.889771 536.72522 97.344604 C 541.810364 97.836792 542.030823 97.748901 544.947571 94.066223 C 546.595947 91.984924 550.335449 88.47699 553.257568 86.270813 C 556.179626 84.064575 561.057129 80.85614 564.096436 79.140869 C 567.135681 77.425598 572.217773 75.129272 575.389954 74.037842 C 578.562134 72.946472 584.931641 71.55127 589.544434 70.937439 C 595.871887 70.095398 600.211121 70.116699 607.215698 71.024231 C 612.322021 71.685852 620.229248 73.574646 624.78717 75.221619 C 629.345093 76.86853 636.320129 80.338379 640.28717 82.932373 C 644.254211 85.526367 649.829651 90.203064 652.677063 93.325134 C 655.524414 96.447144 659.196899 101.363708 660.838135 104.250793 C 662.47937 107.137817 664.847473 112.875 666.100464 117 C 667.71106 122.301941 668.396484 127.137695 668.439392 133.5 C 668.472717 138.450012 668.047546 144.75 667.494507 147.5 C 666.553772 152.177979 666.682617 152.816284 669.494507 157.411682 C 672.284668 161.971558 672.5 163.010315 672.5 171.911682 C 672.5 180.221985 672.142761 182.262146 669.819946 187.218079 C 668.345886 190.362976 665.077271 195.141235 662.556335 197.836304 C 660.035339 200.531433 655.937378 203.808289 653.449646 205.118286 C 649.433044 207.233276 648.747803 208.111572 647.330933 212.960938 C 646.072449 217.268494 645.849548 221.281433 646.275818 231.960938 C 646.674988 241.961487 647.349854 247.005615 648.857971 251.260864 C 649.980957 254.429321 651.709778 258.421814 652.69989 260.133057 C 654.183533 262.697449 658.32373 265.09668 676.25 273.780273 C 698 284.316101 698 284.316101 698 291.051025 C 698 295.863403 698.988647 299.620605 698 300 C 697.239014 300.292053 685.249878 294.131409 673.048584 288.36676 Z M 591.5 293.899963 C 598.582642 293.945496 601.968506 293.439636 607.393005 291.525574 C 611.184143 290.187805 616.809143 287.42511 619.893005 285.386292 C 622.976868 283.347412 628.721252 278.565369 632.658325 274.759521 C 639.81665 267.839783 639.81665 267.839783 637.923584 263.56012 C 636.882385 261.206299 635.38855 256.629822 634.604004 253.390198 C 633.819458 250.150574 632.922424 246.335632 632.610535 244.912537 C 632.298645 243.48938 631.053223 241.883179 629.842957 241.34314 C 628.033936 240.535889 626.384399 241.128601 620.571228 244.674561 C 616.682068 247.046875 610.799988 249.947388 607.5 251.120056 C 603.819031 252.428162 598.021423 253.437683 592.5 253.731995 C 585.461914 254.107178 581.756042 253.760193 575.5 252.14032 C 571.019409 250.980164 567.34613 250.478882 567.150208 251.000916 C 566.957825 251.51355 565.685425 254.985596 564.322632 258.716492 C 562.959778 262.447449 561.599304 267.01532 561.299255 268.867432 C 560.999268 270.719482 561.24646 273.869507 561.848633 275.867432 C 562.450806 277.865356 564.364807 281.218872 566.101929 283.319641 C 567.839111 285.420471 570.889343 288.162231 572.880249 289.412476 C 574.871094 290.66272 577.849976 292.170837 579.5 292.763855 C 581.150024 293.356873 586.549988 293.868164 591.5 293.899963 Z M 486.447632 267.406921 C 492.828125 266.110596 506.475159 263.906799 516.774292 262.509521 C 527.073425 261.112244 538.650024 259.457581 542.5 258.832397 C 546.349976 258.207214 549.805786 257.426697 550.179565 257.097839 C 550.553284 256.769043 551.60675 252.786621 552.520508 248.248108 C 554.181885 239.996216 554.181885 239.996216 549.840942 235.128174 C 547.45343 232.450806 543.985657 227.731689 542.134766 224.641296 C 540.283813 221.550903 537.445557 215.181519 535.827454 210.487061 C 534.209351 205.792603 532.216614 198.925049 531.399231 195.22583 C 530.581787 191.526611 529.641663 180.962524 529.309998 171.75 C 528.727966 155.580872 528.634094 155.000183 526.603516 155.005005 C 524.832458 155.009216 524.117371 156.31311 522.079041 163.255005 C 520.747559 167.789734 518.113831 174.650024 516.226379 178.5 C 513.988037 183.065735 510.895935 187.286926 507.334778 190.638489 C 502.138428 195.528992 501.591858 196.542603 496.011108 211.638489 C 492.786011 220.362305 486.481689 236.428284 482.001465 247.340576 C 477.521179 258.252869 474.078552 267.762268 474.351074 268.472534 C 474.742554 269.492615 477.283203 269.26886 486.447632 267.406921 Z M 589.5 239.907288 C 593.199402 239.932617 597.99231 239.092163 602 237.715332 C 605.575012 236.487183 611.092102 233.752014 614.260254 231.637146 C 617.428406 229.522278 622.485474 225.068054 625.49823 221.738831 C 628.656677 218.248657 633.110596 211.529968 636.0177 205.870483 C 639.966003 198.18396 641.974792 195.420166 645.279724 193.127441 C 647.600891 191.517212 650.710999 188.917297 652.19104 187.349854 C 653.671143 185.78241 655.798767 182.474976 656.919067 180 C 658.039429 177.525024 658.963196 173.924988 658.971863 172 C 658.980591 170.075012 658.292969 167.150024 657.443848 165.5 C 656.594727 163.849976 654.995728 161.802856 653.890442 160.950806 C 651.978455 159.476746 651.914368 158.676025 652.569946 144.450806 C 653.136353 132.161377 652.964966 128.357727 651.607422 123.083191 C 650.699097 119.553955 648.618225 114.378967 646.983215 111.583191 C 645.348206 108.787415 642.762329 105.150024 641.236816 103.5 C 639.711304 101.849976 636.411987 98.822266 633.905029 96.771667 C 631.398071 94.72113 626.844666 91.936768 623.786316 90.584229 C 620.727966 89.231628 615.362366 87.534363 611.862854 86.8125 C 608.363281 86.090637 601.875366 85.514282 597.445251 85.531738 C 592.872009 85.549805 586.610229 86.336548 582.957947 87.351929 C 579.420044 88.335571 573.44165 90.760803 569.672668 92.741333 C 565.903687 94.721924 560.360413 98.668213 557.354248 101.510925 C 551.888611 106.679504 551.888611 106.679504 552.580261 111.893616 C 553.031494 115.295044 552.84491 118.045044 552.04364 119.803833 C 551.368103 121.286743 548.787231 124.874084 546.308411 127.775696 C 541.801453 133.051392 541.801453 133.051392 542.432007 151.275696 C 542.778809 161.299072 543.533447 173.967712 544.109009 179.428223 C 544.68457 184.888733 546.198975 193.470154 547.474426 198.498047 C 548.749878 203.52594 551.372009 210.774414 553.301453 214.605774 C 555.230896 218.437073 558.929504 223.929749 561.520508 226.811584 C 564.111572 229.693481 568.220642 233.217102 570.651794 234.641846 C 573.082947 236.066589 576.968384 237.82489 579.286011 238.549255 C 581.603699 239.27356 586.200012 239.884705 589.5 239.907288 Z M 492.173279 180.977783 C 494.63269 180.992676 496.805481 180.193115 498.748352 178.558289 C 500.34436 177.215332 503.032104 173.052795 504.721008 169.308289 C 506.409973 165.563721 509.216125 158.141602 510.956848 152.814636 C 512.697571 147.487732 515.331909 141.504639 516.810913 139.518921 C 518.289917 137.533203 523.236267 132.18335 527.802795 127.63031 C 536.105652 119.352051 536.105652 119.352051 534.18512 116.980286 C 532.264648 114.608582 532.264648 114.608582 526.041687 118.315613 C 522.619019 120.354431 517.255859 123.99469 514.123413 126.405029 C 510.991028 128.815369 505.663696 133.742676 502.284912 137.354614 C 498.906128 140.966553 494.430237 146.976868 492.338501 150.710876 C 490.246826 154.444885 487.093323 161.070129 485.330811 165.433655 C 482.790588 171.722656 482.344727 173.795715 483.180176 175.433655 C 483.759827 176.570129 485.193909 178.277466 486.367065 179.227783 C 487.540161 180.17804 490.152954 180.965515 492.173279 180.977783 Z"/>
</svg>
