<?xml version="1.0" encoding="UTF-8"?>
<!-- Generated by Pixelmator Pro 3.7 -->
<svg width="610" height="511" viewBox="0 0 610 511" xmlns="http://www.w3.org/2000/svg">
    <path id="Shape" fill="#ebebeb" fill-rule="evenodd" stroke="none" d="M 285 511 C 283.961334 511 281.972137 509.987488 280.579529 508.75 C 278.147644 506.588928 277.88916 505.186066 274.040405 473.260559 C 270.900116 447.211853 270.274048 439.492645 271.146332 437.578156 C 271.758545 436.234528 273.517456 434.614105 275.055023 433.977203 C 277.24408 433.070465 278.463379 433.111694 280.675293 434.167175 C 282.595886 435.083679 283.898285 436.792999 284.744293 439.507568 C 285.42868 441.7034 287.366547 454.975006 289.05069 469 C 290.734833 483.024994 292.19989 497.124298 292.306396 500.331787 C 292.481232 505.598358 292.228088 506.397919 289.694244 508.581787 C 288.151062 509.911804 286.038666 511 285 511 Z M 55.656235 504 C 54.317169 504 52.208282 503.179504 50.969833 502.176666 C 48.997864 500.579865 48.614044 498.995728 47.880615 489.426666 C 47.420013 483.416992 46.322525 467.475006 45.441757 454 C 44.561005 440.524994 43.763794 425.976288 43.670197 421.669556 C 43.515289 414.542297 43.712006 413.666687 45.860779 411.919556 C 47.15921 410.8638 49.271622 410 50.555023 410 C 51.838425 410 54.073792 411.019562 55.522507 412.265686 C 57.961838 414.363922 58.221481 415.380219 59.035187 426.015686 C 59.518463 432.332062 60.381271 444.700012 60.95256 453.5 C 61.523849 462.299988 62.28598 476.09021 62.646179 484.144928 C 63.301056 498.789856 63.301056 498.789856 60.695984 501.394928 C 59.263199 502.827728 56.9953 504 55.656235 504 Z M 244 296.679993 C 274.612488 311.134521 291.149994 319.043457 300.5 323.580872 C 309.850006 328.118347 319.862488 333.417969 322.75 335.35791 L 328 338.88501 L 328.032654 190.192505 C 328.063171 51.062317 328.178162 41.173523 329.820374 36.423157 C 330.785645 33.63092 333.259949 29.051575 335.318848 26.246826 C 337.377747 23.442017 341.138367 19.772095 343.675842 18.091309 C 346.213318 16.410583 350.811829 14.085693 353.894714 12.924866 C 358.578491 11.161316 363.774353 10.584412 385.5 9.415649 C 399.799988 8.646301 430.512268 7.10791 453.749451 5.997009 C 476.986633 4.886108 509.83667 3.269836 526.749451 2.405334 C 543.662231 1.540771 562.900024 0.782043 569.5 0.719238 C 579.763367 0.621582 582.325134 0.930847 587.20166 2.856262 C 590.337524 4.094421 595.161255 7.137634 597.921082 9.618958 C 601.115967 12.491394 604.130676 16.551147 606.219421 20.793823 C 609.5 27.457336 609.5 27.457336 609.83728 204.478638 C 610.046631 314.380005 609.810791 383.774994 609.215271 387.5 C 608.687683 390.799988 607.231445 395.674469 605.979248 398.332184 C 604.727051 400.989868 601.484192 405.591522 598.772949 408.558044 C 595.687256 411.934296 591.534912 415.08197 587.671692 416.973328 C 584.277283 418.635193 579.25 420.412842 576.5 420.923645 C 573.159058 421.544189 564.200012 421.379364 549.5 420.426849 C 537.400024 419.642853 518.049988 418.331177 506.5 417.512054 C 494.950012 416.692932 475.262878 415.33725 462.750854 414.49942 C 450.23877 413.661591 426.838806 412.082397 410.750854 410.990082 C 394.662903 409.897766 377.560791 408.71344 372.746277 408.358246 C 363.992493 407.712463 363.992493 407.712463 364.515198 410.606232 C 364.802673 412.197815 367.52948 429.25 370.574768 448.5 C 373.620056 467.75 376.382141 486.837494 376.712769 490.916626 C 377.293396 498.080383 377.221375 498.412811 374.601196 500.666626 C 373.109192 501.949982 371.07428 503 370.079102 503 C 369.083923 503 367.114319 502.091156 365.702209 500.980377 C 363.949524 499.601715 362.783203 497.300781 362.027344 493.730377 C 361.418335 490.853668 359.350647 478.375 357.432434 466 C 355.514282 453.625 352.367249 434.049988 350.439087 422.5 C 348.510925 410.950012 346.045105 397.914185 344.959534 393.531525 C 343.873962 389.148834 340.999023 381.478943 338.570679 376.487305 C 335.519714 370.215576 332.141541 365.236145 327.636719 360.370483 C 324.05127 356.497925 317.60376 351.022827 313.308899 348.203552 C 309.014008 345.384277 296.838501 339.007996 286.252258 334.034058 C 275.665985 329.060059 259.465973 321.452881 250.252258 317.129211 C 233.5 309.267944 233.5 309.267944 220 311.100769 C 212.575012 312.108765 200.485321 313.447083 193.134033 314.074707 C 183.042206 314.93634 177.040649 314.930603 168.634033 314.051331 C 162.510315 313.410828 153 312.015686 147.5 310.951111 C 142 309.886475 133.787994 307.834167 129.251068 306.390442 C 121.002136 303.765442 121.002136 303.765442 103.751068 311.528931 C 94.26297 315.798828 81.275848 321.930054 74.890778 325.153809 C 68.505707 328.377563 59.641464 333.725098 55.192459 337.03717 C 50.743454 340.349243 45.047394 345.408325 42.534561 348.279541 C 40.021713 351.150818 36.202805 356.887329 34.04808 361.027344 C 31.893356 365.167419 29.218735 371.844604 28.104492 375.86554 C 26.990234 379.886444 25.374664 389.324127 24.514359 396.838135 C 23.654037 404.352173 21.170349 428.5 18.995056 450.5 C 16.819763 472.5 14.587601 491.519135 14.034714 492.76474 C 13.481827 494.010315 11.931015 495.529938 10.58847 496.141632 C 9.245926 496.753357 6.976379 496.9599 5.545044 496.600647 C 3.908127 496.189819 2.332169 494.667389 1.297256 492.497162 C -0.161102 489.438965 -0.218521 487.595062 0.792038 476.273407 C 1.419128 469.248016 3.062485 451.799988 4.443954 437.5 C 5.825424 423.200012 7.690781 404.975006 8.589188 397 C 9.48761 389.024994 11.270752 378.341003 12.551758 373.257813 C 13.832748 368.174622 16.131271 361.229309 17.659576 357.823792 C 19.187881 354.418274 22.07605 349.127258 24.077728 346.065979 C 26.079407 343.0047 30.629425 337.652161 34.188904 334.171448 C 37.748367 330.690735 44.328217 325.221252 48.810806 322.016968 C 53.293381 318.812744 61.807236 313.728149 67.730469 310.717896 C 73.653717 307.707642 83.899994 302.891968 90.5 300.016296 C 97.100006 297.140686 106.662842 292.838989 111.750763 290.457031 C 118.460602 287.315735 121.256897 285.454529 121.931122 283.681152 C 122.442413 282.336365 123.324127 277.904297 123.890533 273.832092 C 124.45694 269.759827 125.229797 259.189392 125.608063 250.342163 C 126.295746 234.256287 126.295746 234.256287 119.630707 222.235718 C 115.964935 215.624451 110.312622 204.654297 107.070007 197.857605 C 103.827423 191.060913 99.559296 180.841492 97.585297 175.147766 C 95.611298 169.454041 93.097046 160.383362 91.998108 154.990662 C 90.583649 148.049927 90.003845 141.288269 90.013123 131.842896 C 90.022095 122.757202 90.620911 115.628479 91.890015 109.5 C 92.9151 104.549988 95.116974 96.997192 96.783112 92.716003 C 98.449249 88.434814 101.629547 81.909851 103.850433 78.216003 C 106.07132 74.522217 109.933624 68.927185 112.433258 65.782593 C 114.932922 62.638 120.216522 57.3927 124.174622 54.126282 C 128.13269 50.859924 134.863312 46.326721 139.131561 44.052551 C 143.399811 41.77832 150.051544 38.842957 153.913208 37.529541 C 157.774841 36.216064 164.436646 34.547119 168.717194 33.82074 C 172.997742 33.09436 181 32.5 186.5 32.5 C 192 32.5 200.46991 33.080078 205.321991 33.789063 C 210.174103 34.498047 217.824097 36.224792 222.321991 37.626343 C 226.819916 39.027893 233.424988 41.757935 237 43.693115 C 240.575012 45.628235 246.480042 49.414001 250.122314 52.105774 C 255.010254 55.718201 257.639679 57 260.162201 57 C 262.041901 57 266.152466 57.670105 269.296814 58.489075 C 272.441162 59.308105 277.673859 61.320984 280.925018 62.962158 C 284.176178 64.603333 289.10318 68.249146 291.873932 71.063904 C 294.644684 73.878723 298.056549 78.479187 299.455841 81.287231 C 301.081787 84.550049 301.992065 88.036194 301.978027 90.94635 C 301.965973 93.450867 301.134033 97.30957 300.129303 99.521301 C 299.124603 101.733032 295.995911 105.616516 293.176666 108.151245 C 288.050781 112.759888 288.050781 112.759888 289.379242 117.629944 C 290.109924 120.308472 291.78598 126.058411 293.103851 130.407593 C 294.948364 136.494812 295.470642 140.408386 295.372528 147.407593 C 295.302429 152.408447 295.270172 160.325012 295.300873 165 C 295.331543 169.674988 295.388916 179.799988 295.428314 187.5 C 295.483643 198.304443 294.976929 204.124939 293.208405 213 C 291.947998 219.325012 289.357849 230.97467 287.452454 238.888184 C 285.547058 246.801697 282.798889 255.926331 281.345428 259.1651 C 279.891937 262.403931 277.10495 266.456665 275.152161 268.171265 C 273.199371 269.885864 269.553741 272.208618 267.050812 273.332947 C 263.896393 274.749878 259.661652 275.509338 253.25 275.807861 C 244 276.238586 244 276.238586 244 286.45929 Z M 186 297.503967 C 200.250153 297.222473 211.040619 296.475769 218 295.289612 C 228.5 293.5 228.5 293.5 228.809814 288.627075 C 228.980194 285.94696 228.870575 283.246948 228.566162 282.627075 C 228.26178 282.007202 229.072205 271.617065 229.538879 266 C 229.981781 260.669128 230.816406 256.847534 231.777527 255.75 C 232.649231 254.754517 234.715698 254 236.570221 254 C 238.89682 254 240.641327 254.859131 242.661987 257 C 245.252594 259.744751 246.055481 260 252.098877 260 C 257.292725 260 259.430328 259.516357 262.102112 257.736816 C 263.970947 256.492065 266.295654 253.852539 267.268127 251.871277 C 268.240601 249.889954 270.590759 241.608704 272.490692 233.468445 C 274.390656 225.328186 276.911469 213.005188 278.092529 206.083984 C 279.920776 195.369995 280.124695 191.642456 279.464722 181 C 279.038361 174.125 278.695892 166.924988 278.703644 165 C 278.711426 163.075012 279.072327 158.228516 279.505615 154.230042 C 279.938904 150.231567 280.101196 146.767822 279.866241 146.532898 C 279.631287 146.297913 278.742157 145.838257 277.890381 145.511414 C 276.69812 145.053894 275.921387 146.305481 274.515076 150.950195 C 273.510437 154.268311 271.859558 158.34613 270.846527 160.011963 C 269.833466 161.677856 267.911743 163.538696 266.57605 164.147278 C 265.240326 164.75592 262.993011 164.96405 261.58197 164.609924 C 259.805817 164.164124 258.242249 162.438171 256.5 159 C 254.836304 155.716858 253.170685 153.829956 251.5849 153.431946 C 250.265656 153.10083 248.325043 153.290833 247.2724 153.854187 C 246.219788 154.417542 244.546631 156.679016 243.55426 158.879639 C 242.422485 161.389526 241.75 165.256348 241.75 169.254517 C 241.75 172.760071 242.515289 178.299377 243.450623 181.564087 C 244.385986 184.828857 246.69223 190.328003 248.575623 193.784424 C 250.459045 197.240845 252 201.145691 252 202.461853 C 252 203.855957 250.900177 205.719971 249.365143 206.927429 C 247.885132 208.091614 245.255371 209 243.365143 209 C 241.483917 209 239.228302 208.224487 238.25 207.241272 C 237.287506 206.273987 235.475311 204.136475 234.222931 202.491272 C 231.945862 199.5 231.945862 199.5 230.424591 201.639099 C 229.587891 202.815613 227.316467 206.415588 225.376984 209.639099 C 223.4375 212.86261 220.019928 217.874939 217.78241 220.777649 C 215.544861 223.680298 210.863037 228.323975 207.378326 231.096802 C 203.893616 233.86969 198.387451 237.465149 195.142395 239.086731 C 191.897339 240.708252 185.503296 242.98053 180.933411 244.136169 C 174.102905 245.863464 170.656281 246.149292 161.562256 245.742554 C 155.284393 245.461792 148.70755 244.580811 146.355591 243.705505 C 142.211212 242.163208 142.211212 242.163208 141.488403 254.331604 C 141.090881 261.024231 140.206787 270.826416 139.523773 276.114258 C 138.840759 281.4021 137.595856 287.10376 136.757294 288.784668 C 135.232666 291.840881 135.232666 291.840881 141.404388 293.511475 C 144.798828 294.430298 151.383972 295.80011 156.038055 296.55542 C 162.055756 297.532043 170.710266 297.80603 186 297.503967 Z M 167 229.53363 C 171.125 229.292664 177.424988 228.185242 181 227.072754 C 184.575012 225.960205 189.753296 223.52533 192.507294 221.661865 C 195.261322 219.798401 200.241089 215.359131 203.573456 211.796814 C 207.324646 207.786804 211.378052 201.926331 214.215851 196.409973 C 216.736816 191.50946 220.135071 183.674988 221.767548 179 C 223.399994 174.325012 225.065582 167.807922 225.468811 164.517578 C 225.87207 161.227234 227.102661 156.127869 228.203522 153.185608 C 229.304352 150.243347 231.578796 146.271423 233.257843 144.359131 C 234.93689 142.446777 238.022827 140.008667 240.115479 138.941101 C 242.401398 137.774902 245.945068 137 248.992279 137 C 251.78186 137 255.652496 137.663635 257.593719 138.474731 C 261.123199 139.949402 261.123199 139.949402 262.457184 136.724731 C 263.190887 134.951111 264.714691 130.349976 265.843414 126.5 C 266.972137 122.650024 268.859253 115.622803 270.036987 110.884033 C 272.099365 102.585754 272.331787 102.184021 276.339172 99.98877 C 278.627625 98.735168 281.512512 96.796387 282.75 95.68042 C 284.072754 94.487549 285 92.488037 285 90.828552 C 285 89.015442 283.767242 86.641235 281.553558 84.190979 C 279.65802 82.092834 275.770142 79.104187 272.913849 77.549622 C 269.055481 75.449646 265.517181 74.499756 259.148438 73.854248 C 252.603241 73.190796 249.662872 72.38092 246.71344 70.429077 C 244.588898 69.023132 241.086273 65.944641 238.367859 64.450989 C 235.353577 62.7948 231.174866 60.207092 229 59 C 224.140045 56.302673 223.995514 56.004272 217.75 54.104736 C 213.762512 52.891907 207.125 51.402771 203 50.795471 C 198.714966 50.164612 189.927429 49.924072 182.5 50.234314 C 173.07663 50.627869 167.574127 51.385315 162.5 52.987305 C 158.649994 54.20282 152.522858 56.751953 148.884125 58.652039 C 145.245392 60.552124 139.635681 64.2276 136.418121 66.819763 C 133.200531 69.411865 128.195557 74.450378 125.295898 78.016357 C 122.396271 81.582336 118.227905 88.099976 116.032867 92.5 C 113.83783 96.900024 111.0896 104.099976 109.92572 108.5 C 108.605164 113.492188 107.60791 121.07135 107.273285 128.658569 C 106.889526 137.359741 107.190552 143.501465 108.331879 150.257019 C 109.209076 155.448975 111.904999 165.306274 114.322876 172.162109 C 116.740723 179.017944 121.501556 190.223633 124.902466 197.06366 C 128.303375 203.903625 132.887665 212.539063 135.089722 216.25354 C 138.082977 221.30249 140.126312 223.533936 143.185486 225.094666 C 145.436096 226.242798 150.027557 227.809875 153.388733 228.576965 C 157.01947 229.405579 162.54422 229.793884 167 229.53363 Z"/>
    <linearGradient id="linearGradient1" x1="344.087804" y1="205.20023" x2="592.978353" y2="205.20023" gradientUnits="userSpaceOnUse">
        <stop offset="0" stop-color="#c0dfea" stop-opacity="1"/>
        <stop offset="1" stop-color="#98d0e7" stop-opacity="1"/>
    </linearGradient>
    <path id="path1" fill="url(#linearGradient1)" fill-rule="evenodd" stroke="none" d="M 385.079102 392.854553 C 383.110596 392.774536 377.071167 392.37323 371.658203 391.962738 C 366.245178 391.552246 361.479187 390.8302 361.067017 390.358185 C 360.654846 389.8862 359.287903 386.350006 358.029358 382.5 C 356.770813 378.650024 354.405457 372.799988 352.77301 369.5 C 351.140564 366.200012 348.611267 361.474976 347.152466 359 C 345.693604 356.525024 344.348022 353.649902 344.162231 352.610901 C 343.85199 350.875916 344.300659 350.776123 349.662231 351.38739 C 352.872986 351.753418 361.77594 352.939453 369.446533 354.02301 C 377.117126 355.106506 383.760315 356.360352 384.209229 356.809265 C 384.658142 357.258179 385.486084 362.772217 386.049072 369.062744 C 386.612122 375.35321 387.429504 383.3125 387.865479 386.75 C 388.658264 393 388.658264 393 385.079102 392.854553 Z M 592.25 283.906189 C 591.837524 283.854553 587.900024 281.989868 583.5 279.76239 C 579.099976 277.534912 570.357666 273.267273 564.072571 270.278809 C 557.787476 267.290283 551.196289 263.39624 549.425415 261.625427 C 547.31366 259.513672 545.451904 256.012939 544.015381 251.45282 C 542.460022 246.515503 541.672363 240.876526 541.298279 232 C 540.927185 223.194824 541.174683 217.883728 542.135742 214.031982 C 543.325134 209.264893 544.076843 208.18811 548 205.631653 C 550.474976 204.01886 554.436646 200.854492 556.80365 198.59967 C 559.170654 196.344849 562.545654 191.585693 564.30365 188.023743 C 566.960449 182.640686 567.56012 180.136353 567.85614 173.188049 C 568.186768 165.427612 567.986023 164.382874 565.054138 158.606628 C 561.895935 152.384583 561.895935 152.384583 563.012146 143.442261 C 563.626099 138.524048 563.824158 131.799988 563.452271 128.5 C 563.080444 125.200012 561.713501 119.125 560.414673 115 C 559.115845 110.875 556.431885 105.025024 554.450317 102 C 552.46875 98.974976 548.744263 94.343384 546.173706 91.707581 C 543.603149 89.071716 538.705444 85.093079 535.289856 82.866089 C 531.874207 80.639038 525.726685 77.515015 521.628601 75.923767 C 517.530579 74.332458 509.975159 72.300964 504.838806 71.409302 C 498.570618 70.321228 493.141357 69.99884 488.32666 70.428833 C 484.381348 70.781189 478.531372 71.735657 475.32666 72.549805 C 472.122009 73.363953 466.33728 75.573547 462.471741 77.460083 C 458.606201 79.346558 452.461853 83.147217 448.817688 85.905945 C 445.173462 88.664673 441.218079 92.289368 440.027832 93.960876 C 438.047424 96.742126 437.376709 97 432.123047 97 C 427.367126 97 425.412842 97.583801 420.730957 100.403076 C 417.622681 102.27478 411.349121 106.403992 406.789795 109.579041 C 402.230408 112.754089 394.426331 119.435181 389.447388 124.425903 C 383.893921 129.992554 378.382629 136.774536 375.189209 141.971558 C 372.326111 146.630859 368.353638 154.64978 366.36145 159.79126 C 363.328857 167.618042 362.150208 169.517761 359.119629 171.463867 C 357.128845 172.742249 353.756104 175.600098 351.624634 177.814636 C 349.439819 180.084656 346.515869 185.47168 346 185 C 345.092773 184.170532 345 169.495911 345 112.413269 C 345 52.901428 345.201477 43.536926 346.554688 40.154968 C 347.409729 38.017883 349.322266 35.107666 350.804688 33.687744 C 352.287109 32.267822 355.293091 30.357056 357.484619 29.441589 C 360.069153 28.361938 366.56958 27.456238 375.984619 26.863953 C 383.968079 26.361694 404.337646 25.2901 421.250366 24.482605 C 438.163025 23.67511 466.175537 22.335327 483.500366 21.505249 C 500.825195 20.675232 528.513 19.308167 545.02887 18.467285 C 566.808105 17.358459 576.136108 17.228821 578.983337 17.995544 C 581.142517 18.576904 584.343567 20.259644 586.096802 21.734924 C 587.850098 23.210205 590.110657 26.235901 591.120361 28.458618 C 592.869751 32.309998 592.957092 38.411377 592.978027 158.25 C 592.990112 227.412476 592.662476 283.957764 592.25 283.906189 Z M 373.594421 268.750122 C 369.688782 269.305054 369.688782 269.305054 370.260376 265.902527 C 370.574768 264.031128 375.079956 251.924988 380.271973 239 C 385.463989 226.075012 391.364807 211.169067 393.384888 205.875671 C 396.407288 197.955994 398.025818 195.251953 402.523132 190.608704 C 405.528992 187.505188 409.277893 182.386169 410.853943 179.232971 C 412.430054 176.079834 414.93335 169.821289 416.416931 165.325012 C 417.900452 160.828796 419.756104 156.617371 420.540588 155.966309 C 421.696899 155.006653 422.159302 155.288757 422.983398 157.456421 C 423.542542 158.927002 424.008789 164.038391 424.019531 168.815125 C 424.030273 173.591797 424.668701 182.224976 425.438232 188 C 426.207825 193.775024 428.369324 203.071533 430.241516 208.658997 C 432.11377 214.24646 435.187805 221.375977 437.072754 224.502319 C 438.957764 227.628723 442.075012 232.021057 444 234.263062 C 445.924988 236.505066 447.79718 239.093262 448.1604 240.014587 C 448.523621 240.935974 448.169678 244.797119 447.37384 248.59491 C 446.578003 252.3927 445.380066 256.04718 444.711792 256.715881 C 444.043579 257.384644 433.82251 259.282776 421.998413 260.93396 C 410.174255 262.585144 395.325012 264.894409 389 266.065674 C 382.674988 267.236938 375.742493 268.444946 373.594421 268.750122 Z"/>
    <linearGradient id="linearGradient2" x1="344.406649" y1="245.098156" x2="593.000002" y2="245.098156" gradientUnits="userSpaceOnUse">
        <stop offset="0" stop-color="#a5f8ff" stop-opacity="1"/>
        <stop offset="1" stop-color="#5ec8fe" stop-opacity="1"/>
    </linearGradient>
    <path id="path2" fill="url(#linearGradient2)" fill-rule="evenodd" stroke="none" d="M 545.89093 277.860596 L 593 300.29834 L 593 342.971008 C 593 378.738586 592.751221 386.373779 591.462769 390.155273 C 590.617249 392.636627 588.254761 396.297516 586.212769 398.290558 C 584.170715 400.2836 580.530945 402.608551 578.124268 403.457123 C 575.717651 404.305695 571.217651 404.947388 568.124268 404.883118 C 565.030945 404.818817 547.309875 403.733124 528.744141 402.470428 C 510.178406 401.207764 476.653442 399.000031 454.244141 397.564362 C 431.834839 396.128693 409.292358 394.289307 407 394 C 402.832092 393.473999 405.164185 393.902069 404.053406 387.20105 C 403.442505 383.515472 402.089844 374.630188 401.047546 367.455933 C 400.005249 360.281738 398.623474 347.906738 397.976929 339.955933 C 397.135925 329.613464 396.358765 325.002014 395.245728 323.75 C 394.390076 322.787476 392.720764 322 391.536133 322 C 390.351501 322 388.596497 322.574524 387.636169 323.276794 C 386.675781 323.979004 385.475525 326.341492 384.968872 328.526794 C 384.462219 330.712036 384.036987 334.1875 384.023865 336.25 C 384 340 384 340 379.105957 340 C 376.414246 340 369.695801 340.546509 364 340 C 358.304199 339.45343 349.337524 339.312134 347 339 C 342.75 338.432434 345 336.877441 345.01532 269.688721 C 345.024231 230.68457 345.399231 203.082092 345.909363 203.887573 C 346.585266 204.954834 347.447449 204.36853 349.644043 201.3479 C 351.214844 199.187927 354.180603 195.37561 356.23468 192.876038 C 358.288696 190.376526 362.114624 187.01532 364 186 C 367.427917 184.153931 368.183838 184.649353 372 188 C 374.098877 189.842834 373.976868 189.938477 376 191 C 378.945801 192.545654 382.027527 194.753052 381.606384 196.426819 C 381.319519 197.567078 375.852661 211.325012 369.457886 227 C 363.063049 242.674988 355.991211 260.224976 353.742554 266 C 351.041138 272.937805 349.627991 278.180847 349.577026 281.454529 C 349.511108 285.693848 349.7995 286.502441 352 287 C 354.277832 287.515015 355.633545 287.48468 361 286 C 364.655701 284.988647 373.155151 283.982727 380.067017 282.605286 C 386.978882 281.227905 399.128906 279.178284 407.067017 278.050598 C 415.005188 276.922974 425.887573 275.408569 431.250183 274.685242 C 441.000366 273.370178 441.000366 273.370178 442.663269 279.29657 C 443.620422 282.707947 446.105469 287.640076 448.519043 290.91864 C 450.825134 294.05127 455.163574 298.241577 458.159912 300.230469 C 461.156311 302.21936 466.508667 304.828308 470.053955 306.028076 C 474.846863 307.650085 478.958252 308.220459 486.08551 308.252136 C 493.245483 308.283936 497.536194 307.72821 503.042419 306.055725 C 507.09668 304.82428 513.358215 302.325684 516.956909 300.503235 C 520.555603 298.680786 525.389038 295.811218 527.697876 294.126343 C 530.006714 292.441467 535.044678 288.092407 538.893372 284.461792 L 545.89093 277.860596 Z M 486.281555 293.921082 C 481.283325 293.876099 475.700928 293.204651 473.324219 292.362488 C 471.027527 291.548645 467.025452 289.014099 464.430725 286.730103 C 461.835999 284.446106 458.887451 280.76001 457.878479 278.538696 C 456.869446 276.317444 456.034058 272.86969 456.021973 270.877136 C 456.009888 268.884521 456.894592 265.231812 457.988037 262.76001 C 459.081421 260.288147 460.346863 256.518433 460.800049 254.382874 C 461.430786 251.410645 462.078552 250.53241 463.562012 250.638184 C 464.62793 250.714172 468.526306 251.563538 472.225159 252.525696 C 477.234436 253.828796 481.31665 254.149048 488.225159 253.781067 C 495.659119 253.38501 499.016663 252.653503 505.141418 250.095398 C 509.344177 248.340027 515.638 244.916809 519.127686 242.48822 C 522.617432 240.059631 525.747742 238.393799 526.084045 238.786316 C 526.420288 239.178833 527.445618 243.439758 528.362549 248.255005 C 529.279419 253.07019 531.111328 259.455872 532.433411 262.445313 C 534.837158 267.880676 534.837158 267.880676 526.668579 275.711548 C 522.175842 280.018555 515.950439 284.977783 512.83429 286.732178 C 509.71814 288.486572 504.444824 290.839539 501.115845 291.960999 C 496.731812 293.437866 492.642029 293.97821 486.281555 293.921082 Z M 484.5 239.907288 C 481.200012 239.884705 476.603699 239.27356 474.286011 238.549255 C 471.968384 237.82489 468.082947 236.066589 465.651794 234.641846 C 463.220642 233.217102 459.111572 229.693481 456.520508 226.811584 C 453.929504 223.929749 450.230896 218.437073 448.301453 214.605774 C 446.372009 210.774414 443.739136 203.483582 442.450562 198.403931 C 441.161987 193.324341 439.643738 184.517883 439.076599 178.834106 C 438.50946 173.15033 437.777527 160.510071 437.450073 150.744568 C 436.854675 132.989075 436.854675 132.989075 441.335022 127.744568 C 443.799194 124.860046 446.368103 121.286743 447.04364 119.803833 C 447.84491 118.045105 448.031494 115.295044 447.580322 111.893982 C 446.888672 106.680237 446.888672 106.680237 452.520752 101.438721 C 455.618347 98.555908 460.91217 94.72644 464.28479 92.928894 C 467.65741 91.131287 472.994568 88.858276 476.145081 87.877686 C 479.295654 86.897156 485.164368 85.817566 489.186646 85.478638 C 493.909851 85.080627 499.408875 85.387024 504.713196 86.343689 C 509.433044 87.195007 516.025635 89.316345 520.213196 91.331238 C 525.085205 93.675598 529.434082 96.796204 533.336243 100.748047 C 536.546143 103.99884 540.462769 108.86792 542.039856 111.568237 C 543.616943 114.268616 545.668274 119.289246 546.598328 122.72522 C 548.015747 127.961548 548.17511 131.471924 547.582947 144.41803 C 546.913879 159.047058 546.978638 159.918213 548.807922 160.897217 C 549.870178 161.465698 551.525146 163.586914 552.485657 165.610962 C 553.723572 168.219727 554.058105 170.559631 553.634644 173.648743 C 553.306152 176.045471 552.168396 179.692444 551.106323 181.753174 C 550.04425 183.813965 547.67334 186.89978 545.837646 188.610657 C 544.001953 190.321472 541.040955 192.553955 539.25769 193.571716 C 536.78241 194.984375 534.852234 197.797119 531.098938 205.46106 C 527.931946 211.927795 524.196594 217.686951 520.601501 221.645935 C 517.531921 225.026245 512.428406 229.522278 509.260254 231.637146 C 506.092102 233.752014 500.575012 236.487183 497 237.715332 C 492.99231 239.092163 488.199402 239.932617 484.5 239.907288 Z M 387.531921 181 C 384.628418 181 382.619141 180.619141 380 178 C 376.633606 174.633545 377.0672 174.267151 379.687317 167.383606 C 381.128357 163.597595 383.425537 158.25 384.792175 155.5 C 386.158752 152.75 388.964478 148.010925 391.0271 144.968811 C 393.089783 141.926636 397.747131 136.659485 401.376831 133.264099 C 405.006531 129.868652 410.794128 125.176331 414.238159 122.83667 C 417.68219 120.496948 422.402222 117.51886 424.727112 116.218628 C 428.595825 114.055054 429.138123 113.983337 431.122314 115.373108 C 433.252197 116.864929 433.081055 117.108093 421.395142 129.195801 C 409.51416 141.485352 409.496582 141.510681 406.639709 150.5 C 405.066528 155.450012 402.427734 162.784851 400.775696 166.799683 C 399.123657 170.814453 396.307678 175.651978 394.517944 177.549683 C 391.937439 180.285767 390.491333 181 387.531921 181 Z"/>
    <path id="path3" fill="#3a93ee" fill-rule="evenodd" stroke="none" d="M 398.049988 393.863831 C 395.547485 393.78891 392.508789 393.5354 391.297302 393.300476 C 390.085754 393.065521 388.8703 392.114288 388.596191 391.186646 C 388.322083 390.259003 387.596375 383.875 386.983398 377 C 386.370483 370.125 385.649475 362.61145 385.381226 360.303284 C 384.908569 356.236572 384.763428 356.088379 380.696716 355.519653 C 378.38855 355.196838 369.299988 353.935364 360.5 352.71637 C 344.5 350.5 344.5 350.5 344.844849 344.5 C 345.034485 341.200012 345.484497 338.221558 345.844849 337.881165 C 346.2052 337.540833 349.650024 337.627014 353.5 338.072754 C 357.349976 338.518433 365.723083 339.198242 372.106812 339.583496 C 383.713623 340.283875 383.713623 340.283875 384.42395 333.074768 C 384.926819 327.971863 385.699036 325.300964 387.0672 323.9328 C 388.130249 322.869751 389.813965 322 390.808899 322 C 391.803772 322 393.424622 322.589966 394.410767 323.311096 C 395.733643 324.278381 396.4422 326.835083 397.113037 333.061096 C 397.613159 337.702515 398.689087 347.575012 399.504028 355 C 400.31897 362.424988 401.817566 373.76886 402.83429 380.208618 C 404.11554 388.324524 404.36322 392.236786 403.641357 392.958618 C 403.068604 393.531372 400.55249 393.938721 398.049988 393.863831 Z M 545.86438 277.885681 C 535.038696 288.098083 530.006714 292.458801 527.697876 294.164795 C 525.389038 295.870789 519.900024 298.970032 515.5 301.051941 C 511.099976 303.13385 504.735046 305.548889 501.355652 306.41864 C 497.740784 307.348999 491.359802 307.971313 485.855652 307.930359 C 480.516113 307.890625 474.367004 307.206299 471.531067 306.336243 C 468.798157 305.497803 464.523132 303.767334 462.031067 302.490784 C 459.539001 301.214172 455.700012 298.425232 453.5 296.29303 C 449.635437 292.547607 449.673645 292.971313 446 289 C 444.089111 286.934265 443.080261 283.238953 442.698975 279.034729 C 442.163818 273.133667 440.852905 273.404358 423.676453 275.671753 C 414.229431 276.918823 399.75 279.083984 391.5 280.483215 C 383.25 281.882446 371.703003 284.205078 365.840027 285.644653 C 359.556152 287.187561 354.123108 287.996704 352.605286 287.615784 C 350.918762 287.192505 349.798767 286.046448 349.358887 284.293823 C 348.989563 282.822144 349.235596 279.566528 349.90564 277.059021 C 350.575684 274.551575 354.19873 264.849976 357.956787 255.5 C 361.714905 246.150024 368.456543 229.5 372.938293 218.5 C 377.419983 207.5 381.321167 197.567078 381.607483 196.426819 C 382.027649 194.753418 381.388489 194.063171 378.292786 192.847168 C 376.183411 192.018555 372.740234 189.832825 370.641357 187.98999 C 366.825195 184.639343 366.825195 184.639343 363.242188 186.568909 C 361.271545 187.630188 357.755005 191.562134 355 195 C 351.447754 199.432922 347.645691 205 346 205 C 343.751099 205 345 200.732422 345 192.333313 C 345 187.56665 345.284729 183.951416 345.632751 184.299438 C 345.980774 184.647461 347.181274 183.709961 348.300476 182.216064 C 349.419739 180.722229 351.722473 177.983826 353.417725 176.130737 C 355.112976 174.277649 357.922852 172.150696 359.661865 171.404175 C 362.176941 170.324463 363.181091 168.96814 364.57074 164.773438 C 365.531616 161.873047 367.584167 156.672485 369.13208 153.216553 C 370.679932 149.760681 373.952209 143.832397 376.403809 140.042603 C 378.855408 136.252808 384.155029 129.683594 388.180664 125.444458 C 392.206299 121.205261 399.801636 114.664917 405.059265 110.910339 C 410.316833 107.155762 417.29187 102.453674 420.559265 100.461304 C 425.901184 97.203918 427.026672 96.889771 431.72522 97.344604 C 436.810364 97.836792 437.030823 97.748901 439.947571 94.066223 C 441.595947 91.984924 445.335449 88.47699 448.257568 86.270813 C 451.179626 84.064575 456.057129 80.85614 459.096436 79.140869 C 462.135681 77.425598 467.217773 75.129272 470.389954 74.037842 C 473.562134 72.946472 479.931641 71.55127 484.544434 70.937439 C 490.871887 70.095398 495.211121 70.116699 502.215698 71.024231 C 507.322021 71.685852 515.229248 73.574646 519.78717 75.221619 C 524.345093 76.86853 531.320129 80.338379 535.28717 82.932373 C 539.254211 85.526367 544.829651 90.203064 547.677063 93.325134 C 550.524414 96.447144 554.196899 101.363708 555.838135 104.250793 C 557.47937 107.137817 559.847473 112.875 561.100464 117 C 562.71106 122.301941 563.396484 127.137695 563.439392 133.5 C 563.472717 138.450012 563.047546 144.75 562.494507 147.5 C 561.553772 152.177979 561.682617 152.816284 564.494507 157.411682 C 567.284668 161.971558 567.5 163.010315 567.5 171.911682 C 567.5 180.221985 567.142761 182.262146 564.819946 187.218079 C 563.345886 190.362976 560.077271 195.141235 557.556335 197.836304 C 555.035339 200.531433 550.937378 203.808289 548.449646 205.118286 C 544.433044 207.233276 543.747803 208.111572 542.330933 212.960938 C 541.072449 217.268494 540.849548 221.281433 541.275818 231.960938 C 541.674988 241.961487 542.349854 247.005615 543.857971 251.260864 C 544.980957 254.429321 546.709778 258.421814 547.69989 260.133057 C 549.183533 262.697449 553.32373 265.09668 571.25 273.780273 C 593 284.316101 593 284.316101 593 291.051025 C 593 295.863403 593.988647 299.620605 593 300 C 592.239014 300.292053 580.249878 294.131409 568.048584 288.36676 Z M 486.5 293.899963 C 493.582642 293.945496 496.968506 293.439636 502.393005 291.525574 C 506.184143 290.187805 511.809143 287.42511 514.893005 285.386292 C 517.976868 283.347412 523.721252 278.565369 527.658325 274.759521 C 534.81665 267.839783 534.81665 267.839783 532.923584 263.56012 C 531.882385 261.206299 530.38855 256.629822 529.604004 253.390198 C 528.819458 250.150574 527.922424 246.335632 527.610535 244.912537 C 527.298645 243.48938 526.053223 241.883179 524.842957 241.34314 C 523.033936 240.535889 521.384399 241.128601 515.571228 244.674561 C 511.682068 247.046875 505.799988 249.947388 502.5 251.120056 C 498.819031 252.428162 493.021423 253.437683 487.5 253.731995 C 480.461914 254.107178 476.756042 253.760193 470.5 252.14032 C 466.019409 250.980164 462.34613 250.478882 462.150208 251.000916 C 461.957825 251.51355 460.685425 254.985596 459.322632 258.716492 C 457.959778 262.447449 456.599304 267.01532 456.299255 268.867432 C 455.999268 270.719482 456.24646 273.869507 456.848633 275.867432 C 457.450806 277.865356 459.364807 281.218872 461.101929 283.319641 C 462.839111 285.420471 465.889343 288.162231 467.880249 289.412476 C 469.871094 290.66272 472.849976 292.170837 474.5 292.763855 C 476.150024 293.356873 481.549988 293.868164 486.5 293.899963 Z M 381.447632 267.406921 C 387.828125 266.110596 401.475159 263.906799 411.774292 262.509521 C 422.073425 261.112244 433.650024 259.457581 437.5 258.832397 C 441.349976 258.207214 444.805786 257.426697 445.179565 257.097839 C 445.553284 256.769043 446.60675 252.786621 447.520508 248.248108 C 449.181885 239.996216 449.181885 239.996216 444.840942 235.128174 C 442.45343 232.450806 438.985657 227.731689 437.134766 224.641296 C 435.283813 221.550903 432.445557 215.181519 430.827454 210.487061 C 429.209351 205.792603 427.216614 198.925049 426.399231 195.22583 C 425.581787 191.526611 424.641663 180.962524 424.309998 171.75 C 423.727966 155.580872 423.634094 155.000183 421.603516 155.005005 C 419.832458 155.009216 419.117371 156.31311 417.079041 163.255005 C 415.747559 167.789734 413.113831 174.650024 411.226379 178.5 C 408.988037 183.065735 405.895935 187.286926 402.334778 190.638489 C 397.138428 195.528992 396.591858 196.542603 391.011108 211.638489 C 387.786011 220.362305 381.481689 236.428284 377.001465 247.340576 C 372.521179 258.252869 369.078552 267.762268 369.351074 268.472534 C 369.742554 269.492615 372.283203 269.26886 381.447632 267.406921 Z M 484.5 239.907288 C 488.199402 239.932617 492.99231 239.092163 497 237.715332 C 500.575012 236.487183 506.092102 233.752014 509.260254 231.637146 C 512.428406 229.522278 517.485474 225.068054 520.49823 221.738831 C 523.656677 218.248657 528.110596 211.529968 531.0177 205.870483 C 534.966003 198.18396 536.974792 195.420166 540.279724 193.127441 C 542.600891 191.517212 545.710999 188.917297 547.19104 187.349854 C 548.671143 185.78241 550.798767 182.474976 551.919067 180 C 553.039429 177.525024 553.963196 173.924988 553.971863 172 C 553.980591 170.075012 553.292969 167.150024 552.443848 165.5 C 551.594727 163.849976 549.995728 161.802856 548.890442 160.950806 C 546.978455 159.476746 546.914368 158.676025 547.569946 144.450806 C 548.136353 132.161377 547.964966 128.357727 546.607422 123.083191 C 545.699097 119.553955 543.618225 114.378967 541.983215 111.583191 C 540.348206 108.787415 537.762329 105.150024 536.236816 103.5 C 534.711304 101.849976 531.411987 98.822266 528.905029 96.771667 C 526.398071 94.72113 521.844666 91.936768 518.786316 90.584229 C 515.727966 89.231628 510.362366 87.534363 506.862854 86.8125 C 503.363281 86.090637 496.875366 85.514282 492.445251 85.531738 C 487.872009 85.549805 481.610229 86.336548 477.957947 87.351929 C 474.420044 88.335571 468.44165 90.760803 464.672668 92.741333 C 460.903687 94.721924 455.360413 98.668213 452.354248 101.510925 C 446.888611 106.679504 446.888611 106.679504 447.580261 111.893616 C 448.031494 115.295044 447.84491 118.045044 447.04364 119.803833 C 446.368103 121.286743 443.787231 124.874084 441.308411 127.775696 C 436.801453 133.051392 436.801453 133.051392 437.432007 151.275696 C 437.778809 161.299072 438.533447 173.967712 439.109009 179.428223 C 439.68457 184.888733 441.198975 193.470154 442.474426 198.498047 C 443.749878 203.52594 446.372009 210.774414 448.301453 214.605774 C 450.230896 218.437073 453.929504 223.929749 456.520508 226.811584 C 459.111572 229.693481 463.220642 233.217102 465.651794 234.641846 C 468.082947 236.066589 471.968384 237.82489 474.286011 238.549255 C 476.603699 239.27356 481.200012 239.884705 484.5 239.907288 Z M 387.173279 180.977783 C 389.63269 180.992676 391.805481 180.193115 393.748352 178.558289 C 395.34436 177.215332 398.032104 173.052795 399.721008 169.308289 C 401.409973 165.563721 404.216125 158.141602 405.956848 152.814636 C 407.697571 147.487732 410.331909 141.504639 411.810913 139.518921 C 413.289917 137.533203 418.236267 132.18335 422.802795 127.63031 C 431.105652 119.352051 431.105652 119.352051 429.18512 116.980286 C 427.264648 114.608582 427.264648 114.608582 421.041687 118.315613 C 417.619019 120.354431 412.255859 123.99469 409.123413 126.405029 C 405.991028 128.815369 400.663696 133.742676 397.284912 137.354614 C 393.906128 140.966553 389.430237 146.976868 387.338501 150.710876 C 385.246826 154.444885 382.093323 161.070129 380.330811 165.433655 C 377.790588 171.722656 377.344727 173.795715 378.180176 175.433655 C 378.759827 176.570129 380.193909 178.277466 381.367065 179.227783 C 382.540161 180.17804 385.152954 180.965515 387.173279 180.977783 Z"/>
</svg>
